# xmcd
#
# Track frame offsets: 
#        150
#        18785
#        39558
#        63816
#        80018
#        103406
#        120129
#        134063
#        153698
#        175078
#        190178
#        197952
#
# Disc length: 2886 seconds
#
# Revision: 0
# Processed by: cddbd v1.5.2PL0 Copyright (c) Steve Scherf et al.
# Submitted via: ExactAudioCopy v1.2
#
DISCID=a10b440c
DTITLE=Doug McLeod - Break The Chain
DYEAR=2017
DGENRE=Blues
TTITLE0=Goin' Down to the Roadhouse
TTITLE1=Mr Bloozeman
TTITLE2=Lonesome Feeling
TTITLE3=Travel On
TTITLE4=LA - The Siren in the West
TTITLE5=One for Tampa Red
TTITLE6=What the Blues Means to Me
TTITLE7=This Road I'm Walking
TTITLE8=Who's Driving This Bus?
TTITLE9=Church Street Serenade
TTITLE10=Going Home
TTITLE11=Break the Chain
EXTD=
EXTT0=
EXTT1=
EXTT2=
EXTT3=
EXTT4=
EXTT5=
EXTT6=
EXTT7=
EXTT8=
EXTT9=
EXTT10=
EXTT11=
PLAYORDER=
